<?xml version="1.0" encoding="UTF-8" standalone="no"?>
<svg
   xmlns:dc="http://purl.org/dc/elements/1.1/"
   xmlns:cc="http://creativecommons.org/ns#"
   xmlns:rdf="http://www.w3.org/1999/02/22-rdf-syntax-ns#"
   xmlns:svg="http://www.w3.org/2000/svg"
   xmlns="http://www.w3.org/2000/svg"
   xmlns:sodipodi="http://sodipodi.sourceforge.net/DTD/sodipodi-0.dtd"
   xmlns:inkscape="http://www.inkscape.org/namespaces/inkscape"
   width="210mm"
   height="297mm"
   viewBox="0 0 210 297"
   version="1.1"
   id="svg8"
   inkscape:version="1.0.2-2 (e86c870879, 2021-01-15)"
   sodipodi:docname="desenho1.svg"
   inkscape:export-filename="C:\Users\Luís Otávio\Documents\desenhos\desenho1.png"
   inkscape:export-xdpi="96"
   inkscape:export-ydpi="96">
  <defs
     id="defs2" />
  <sodipodi:namedview
     id="base"
     pagecolor="#ffffff"
     bordercolor="#666666"
     borderopacity="1.0"
     inkscape:pageopacity="0.0"
     inkscape:pageshadow="2"
     inkscape:zoom="1.2409339"
     inkscape:cx="443.70104"
     inkscape:cy="820.53737"
     inkscape:document-units="mm"
     inkscape:current-layer="layer1"
     inkscape:document-rotation="0"
     showgrid="false"
     inkscape:window-width="1920"
     inkscape:window-height="1013"
     inkscape:window-x="-9"
     inkscape:window-y="-9"
     inkscape:window-maximized="1" />
  <metadata
     id="metadata5">
    <rdf:RDF>
      <cc:Work
         rdf:about="">
        <dc:format>image/svg+xml</dc:format>
        <dc:type
           rdf:resource="http://purl.org/dc/dcmitype/StillImage" />
        <dc:title></dc:title>
      </cc:Work>
    </rdf:RDF>
  </metadata>
  <g
     inkscape:label="Layer 1"
     inkscape:groupmode="layer"
     id="layer1">
    <path
       id="path920"
       style="opacity:1;fill:#a8a498;fill-opacity:1;stroke:#000000;stroke-width:0.665001;stroke-linejoin:round;stroke-miterlimit:4;stroke-dasharray:none;stroke-opacity:1;paint-order:stroke fill markers"
       d="m 77.08865,208.62421 c 3.83223,-1.07368 -2.95411,8.03285 -4.45091,8.02999 -2.45817,-0.005 -4.45092,-3.59515 -4.45092,-8.02999 0,-4.43485 5.20014,-10.37121 4.45092,-8.03 -1.87696,5.86517 1.86778,8.75371 4.45091,8.03 z"
       sodipodi:nodetypes="sssss" />
    <path
       id="path943-7"
       style="opacity:0.998;fill:#3ec2dc;fill-opacity:1;stroke:#000000;stroke-width:0.639494;stroke-linejoin:round;stroke-miterlimit:4;stroke-dasharray:none;stroke-opacity:1;paint-order:stroke fill markers"
       d="m 80.7751,264.68021 c 0.13811,2.27473 2.62785,4.06912 4.43634,3.83784 2.43317,-0.31117 4.43634,-1.71826 4.43634,-3.83784 0,-2.11958 -2.044,-3.26582 -4.43634,-3.83783 -2.00647,-0.47975 -4.68588,-0.27197 -4.43634,3.83783 z"
       sodipodi:nodetypes="sssss" />
    <path
       id="path943"
       style="opacity:0.998;fill:#3ec2dc;fill-opacity:1;stroke:#000000;stroke-width:0.665001;stroke-linejoin:round;stroke-miterlimit:4;stroke-dasharray:none;stroke-opacity:1;paint-order:stroke fill markers"
       d="m 125.79572,265.66349 c -0.14935,2.27473 -2.84166,4.06912 -4.79729,3.83784 -2.63114,-0.31117 -4.7973,-1.71826 -4.7973,-3.83784 0,-2.11958 2.21031,-3.26582 4.7973,-3.83783 2.16972,-0.47975 5.06713,-0.27197 4.79729,3.83783 z"
       sodipodi:nodetypes="sssss" />
    <path
       id="path920-9"
       style="fill:#a8a498;fill-opacity:1;stroke:#000000;stroke-width:0.680547;stroke-linejoin:round;stroke-miterlimit:4;stroke-dasharray:none;stroke-opacity:1;paint-order:stroke fill markers"
       d="m 127.47262,208.10838 c -4.01352,-1.07367 3.09383,8.03286 4.66144,8.03 2.57443,-0.005 4.66144,-3.59515 4.66144,-8.03 0,-4.43484 -5.44611,-10.3712 -4.66144,-8.02999 1.96572,5.86517 -1.95613,8.75371 -4.66144,8.02999 z"
       sodipodi:nodetypes="sssss" />
    <circle
       style="opacity:0.998;fill:#86cb59;fill-opacity:0.963351;stroke:#000000;stroke-width:0.963377;stroke-linejoin:round;stroke-miterlimit:4;stroke-dasharray:none;stroke-opacity:1;paint-order:stroke fill markers"
       id="path1537"
       sodipodi:type="arc"
       sodipodi:cx="-121.61649"
       sodipodi:cy="159.48338"
       sodipodi:rx="5.4584942"
       sodipodi:ry="2.9849832"
       sodipodi:start="0"
       sodipodi:end="6.0896632"
       sodipodi:open="true"
       sodipodi:arc-type="arc"
       d="m -116.158,159.48338 a 5.4584942,2.9849832 0 0 1 -5.19451,2.98149 5.4584942,2.9849832 0 0 1 -5.69694,-2.69311 5.4584942,2.9849832 0 0 1 4.64348,-3.24197 5.4584942,2.9849832 0 0 1 6.14608,2.37953"
       transform="scale(-1,1)" />
    <ellipse
       style="fill:#89d7d0;fill-opacity:1;fill-rule:evenodd;stroke:#000000;stroke-width:1.16505;stroke-miterlimit:4;stroke-dasharray:none;stroke-opacity:1"
       id="path835"
       cx="99.829132"
       cy="234.13783"
       rx="33.382877"
       ry="34.419033"
       transform="matrix(1,0,0.01318531,0.99991307,0,0)" />
    <ellipse
       style="opacity:1;fill:#000000;fill-opacity:1;stroke:#000000;stroke-width:1.165;stroke-miterlimit:4;stroke-dasharray:none;stroke-opacity:1"
       id="path857"
       cx="95.485725"
       cy="224.41533"
       rx="3.2363398"
       ry="2.9352846"
       inkscape:highlight-color="255" />
    <ellipse
       style="fill:#000000;fill-opacity:1;stroke:#000000;stroke-width:1.165;stroke-miterlimit:4;stroke-dasharray:none;stroke-opacity:1"
       id="path857-7"
       cx="108.95792"
       cy="224.49059"
       rx="3.2363398"
       ry="2.9352846"
       inkscape:highlight-color="255" />
    <circle
       style="opacity:0.998;fill:#86cb59;fill-opacity:0.963351;stroke:#000000;stroke-width:0.952;stroke-linejoin:round;stroke-miterlimit:4;stroke-dasharray:none;stroke-opacity:1;paint-order:stroke fill markers"
       id="path1537-1"
       sodipodi:type="arc"
       sodipodi:cx="93.600349"
       sodipodi:cy="159.91006"
       sodipodi:rx="5.330327"
       sodipodi:ry="2.9849832"
       sodipodi:start="0"
       sodipodi:end="6.0896632"
       sodipodi:open="true"
       sodipodi:arc-type="arc"
       d="m 98.930676,159.91006 a 5.330327,2.9849832 0 0 1 -5.072543,2.9815 5.330327,2.9849832 0 0 1 -5.563177,-2.69312 5.330327,2.9849832 0 0 1 4.534455,-3.24197 5.330327,2.9849832 0 0 1 6.001764,2.37953" />
    <path
       id="path881"
       style="opacity:1;fill:#3ec2dc;fill-opacity:1;stroke:#000000;stroke-width:0.665;stroke-miterlimit:4;stroke-dasharray:none;stroke-opacity:1"
       d="m 107.84158,232.93084 c 0,1.78738 -3.26933,3.29805 -5.26455,3.37418 -1.99522,0.0761 -5.90694,-1.86174 -5.90694,-3.64912 0,-1.7874 3.44265,-3.53862 5.35631,-4.10837 0.25569,-0.0762 5.81518,2.59592 5.81518,4.38331 z"
       sodipodi:nodetypes="sssss" />
    <path
       id="rect886"
       style="opacity:1;fill:#3ec2dc;fill-opacity:1;stroke:#000000;stroke-width:0.665001;stroke-miterlimit:4;stroke-dasharray:none;stroke-opacity:1;paint-order:stroke fill markers"
       d="m 83.23733,213.25865 c 5.83665,-0.0797 11.47194,-2.77701 17.52834,0 v 5.04743 c -5.84278,0 -8.08795,-1.79881 -17.52834,0 z"
       sodipodi:nodetypes="ccccc" />
    <path
       id="rect886-6"
       style="fill:#3ec2dc;fill-opacity:1;stroke:#000000;stroke-width:0.665001;stroke-linejoin:round;stroke-miterlimit:4;stroke-dasharray:none;stroke-opacity:1;paint-order:stroke fill markers"
       d="m 104.20708,209.12894 c 5.7816,2.22234 10.92079,1.42415 16.70239,2.29429 v 5.32274 c -5.56746,0.61072 -11.13493,-1.04387 -16.70239,-2.5696 z"
       sodipodi:nodetypes="ccccc" />
    <ellipse
       style="opacity:0.999;fill:#a8a498;fill-opacity:0;stroke:#000000;stroke-width:0.665001;stroke-linejoin:round;stroke-miterlimit:4;stroke-dasharray:none;stroke-opacity:0;paint-order:stroke fill markers"
       id="path1305"
       cx="103.40834"
       cy="118.01344"
       rx="36.672649"
       ry="29.743223" />
    <ellipse
       style="fill:#86cb59;fill-opacity:0.963351;fill-rule:evenodd;stroke:#000000;stroke-width:1.16505;stroke-miterlimit:4;stroke-dasharray:none;stroke-opacity:1"
       id="path835-7"
       cx="104.93368"
       cy="126.87281"
       rx="33.382877"
       ry="34.419033"
       transform="matrix(1,0,0.01318531,0.99991307,0,0)" />
    <ellipse
       style="opacity:0.998;fill:#ffffff;fill-opacity:0.979058;stroke:#000000;stroke-width:0.952;stroke-linejoin:round;stroke-miterlimit:4;stroke-dasharray:none;stroke-opacity:1;paint-order:stroke fill markers"
       id="path1491"
       ry="23.446646"
       rx="23.126818"
       cy="125.79568"
       cx="107.13958" />
    <ellipse
       style="opacity:0.998;fill:#000000;fill-opacity:1;stroke:#000000;stroke-width:0.417458;stroke-linejoin:round;stroke-miterlimit:4;stroke-dasharray:none;stroke-opacity:1;paint-order:stroke fill markers"
       id="path1491-1"
       ry="10.281493"
       rx="10.141247"
       cy="125.15608"
       cx="106.99934" />
    <ellipse
       style="opacity:0.998;fill:#ffffff;fill-opacity:0.979058;stroke:#000000;stroke-width:0.0758718;stroke-linejoin:round;stroke-miterlimit:4;stroke-dasharray:none;stroke-opacity:1;paint-order:stroke fill markers"
       id="path1491-8"
       ry="1.7903172"
       rx="1.9237547"
       cy="119.69231"
       cx="111.61703" />
    <path
       id="path1559"
       style="opacity:0.998;fill:#c7cbaf;fill-opacity:1;stroke:#000000;stroke-width:0.81091;stroke-linejoin:round;stroke-miterlimit:4;stroke-dasharray:none;stroke-opacity:1;paint-order:stroke fill markers"
       d="m 84.199798,91.753967 c 1.61521,1.47199 5.62086,5.04582 4.7438,7.22164 -0.87706,2.175823 -2.92035,3.333813 -4.90576,2.780233 -1.98541,-0.55358 -1.20901,-1.17617 -1.17,-3.585663 0.039,-2.40948 -0.66992,-5.95274 1.33196,-6.41621"
       sodipodi:nodetypes="csssc" />
    <path
       id="path1559-3"
       style="opacity:0.998;fill:#c7cbaf;fill-opacity:1;stroke:#000000;stroke-width:0.827342;stroke-linejoin:round;stroke-miterlimit:4;stroke-dasharray:none;stroke-opacity:1;paint-order:stroke fill markers"
       d="m 127.6396,91.298163 c -1.68133,1.47199 -5.85097,5.04582 -4.938,7.22164 0.91296,2.175827 3.0399,3.333817 5.10659,2.780237 2.06669,-0.55358 1.2585,-1.17617 1.2179,-3.585667 -0.0406,-2.40948 0.69734,-5.95274 -1.38649,-6.41621"
       sodipodi:nodetypes="csssc" />
  </g>
</svg>
